<?xml version="1.0" standalone="no"?>
<!DOCTYPE svg PUBLIC "-//W3C//DTD SVG 20010904//EN"
 "http://www.w3.org/TR/2001/REC-SVG-20010904/DTD/svg10.dtd">
<svg version="1.0" xmlns="http://www.w3.org/2000/svg"
 width="300.000000pt" height="424.000000pt" viewBox="0 0 300.000000 424.000000"
 preserveAspectRatio="xMidYMid meet">
<metadata>
Created by potrace 1.10, written by Peter Selinger 2001-2011
</metadata>
<g transform="translate(0.000000,424.000000) scale(0.100000,-0.100000)"
fill="#000000" stroke="none">
<path d="M497 3615 c-105 -132 -114 -351 -22 -511 14 -23 21 -45 17 -49 -4 -5
-1 -5 6 -1 6 4 12 2 12 -3 0 -6 11 -21 25 -33 30 -26 34 -45 4 -20 -94 75
-157 160 -173 227 -21 89 -27 104 -41 99 -23 -9 -35 -63 -35 -164 0 -62 6
-116 17 -151 9 -30 16 -57 15 -61 -1 -5 2 -8 7 -8 5 0 16 -19 26 -42 9 -24 38
-63 65 -89 44 -42 46 -45 21 -41 -14 2 -39 10 -56 17 -65 28 -110 49 -115 55
-3 3 -21 17 -40 32 -19 14 -62 52 -95 82 -60 57 -81 67 -91 42 -7 -17 14 -59
74 -150 86 -130 145 -171 269 -183 37 -4 77 -6 88 -6 11 1 58 4 105 6 47 3 73
3 58 1 -16 -3 -28 -10 -28 -15 0 -5 -12 -9 -26 -9 -14 0 -33 -4 -43 -9 -29
-16 -169 -22 -233 -11 -78 15 -91 4 -52 -43 27 -32 81 -68 107 -73 35 -6 85
-36 89 -52 3 -11 19 -25 37 -33 17 -8 31 -17 31 -20 0 -3 6 -6 13 -6 6 -1 46
-4 87 -8 76 -7 123 1 225 38 22 8 43 13 48 10 10 -6 -37 -43 -54 -43 -7 0 -9
-3 -6 -7 4 -3 -7 -14 -23 -24 -17 -11 -30 -26 -30 -35 0 -23 -66 -15 -154 21
-61 24 -70 26 -83 12 -13 -13 -11 -19 26 -56 23 -23 46 -39 51 -36 6 4 10 2
10 -3 0 -12 59 -37 135 -58 75 -20 212 -21 232 -2 18 19 6 48 -20 48 -19 0
-18 1 5 23 14 12 38 30 54 40 16 9 44 26 62 38 30 19 32 19 26 2 -4 -10 -12
-25 -19 -33 -6 -8 -19 -31 -27 -50 -37 -84 -52 -115 -58 -120 -13 -12 -40 -60
-40 -72 1 -31 68 67 103 150 40 94 97 162 135 162 13 0 9 -6 -13 -24 -32 -25
-83 -121 -71 -133 10 -11 37 22 40 50 2 13 17 40 34 58 18 19 32 38 32 42 0
18 -22 47 -31 42 -5 -4 -9 -1 -9 5 0 12 -33 26 -81 34 -57 9 -106 -11 -169
-69 -49 -45 -105 -75 -142 -75 -19 0 -6 18 17 24 13 3 50 30 82 60 32 30 74
61 93 70 l35 15 -50 -6 c-27 -3 -95 -22 -150 -42 -128 -46 -217 -49 -312 -11
-35 13 -63 27 -63 30 0 3 29 4 64 2 52 -3 80 2 153 28 200 72 242 82 336 78
93 -4 95 2 8 22 -87 20 -188 8 -331 -41 -164 -56 -234 -59 -330 -12 -57 28
-136 83 -119 83 4 0 28 -9 54 -21 43 -19 55 -20 134 -11 47 6 135 24 196 41
150 43 286 65 357 58 75 -7 168 -51 236 -112 71 -64 232 -271 232 -297 0 -6
-17 12 -38 39 -57 72 -104 108 -167 132 -32 12 -59 20 -62 18 -5 -6 57 -42 98
-57 23 -8 55 -39 102 -97 37 -47 65 -88 62 -92 -6 -5 -29 18 -108 111 l-28 33
21 -35 c11 -19 20 -49 20 -66 0 -16 7 -39 15 -50 21 -28 18 -40 -5 -19 -11 10
-20 24 -20 32 0 22 -19 15 -24 -9 -3 -13 -7 -60 -9 -104 -3 -67 -9 -90 -31
-128 -30 -52 -47 -57 -22 -7 22 41 20 62 -9 131 -29 68 -31 110 -10 170 24 69
16 90 -10 25 -13 -33 -24 -54 -24 -46 -1 8 -19 -13 -40 -46 -27 -41 -61 -76
-107 -109 -50 -36 -64 -50 -50 -52 10 -2 22 1 26 8 4 6 9 11 11 9 12 -8 81 52
110 94 28 41 65 82 45 49 -3 -6 3 -36 15 -68 23 -62 31 -135 18 -171 -5 -15
-3 -25 7 -34 13 -10 12 -14 -2 -30 -10 -11 -23 -19 -31 -19 -7 0 -13 -4 -13
-8 0 -4 -21 -14 -47 -22 -47 -14 -47 -14 -16 -18 42 -4 120 36 166 87 20 22
53 73 73 113 23 45 56 91 87 120 28 26 48 51 44 54 -3 4 -17 -3 -29 -15 -43
-39 -83 -71 -90 -71 -14 0 -9 27 7 40 11 9 12 17 5 30 -13 24 3 35 20 15 17
-21 54 -1 47 26 -3 10 -4 19 -3 19 0 0 15 -4 31 -9 l30 -8 1 46 c5 159 83 358
178 455 29 30 51 58 48 61 -3 3 -17 5 -31 5 -17 0 -22 -3 -13 -8 14 -9 -19
-46 -60 -66 -42 -21 -84 -103 -94 -184 -1 -13 -6 -27 -10 -30 -4 -4 -4 10 -1
30 6 40 -3 152 -11 143 -5 -5 -17 21 -52 120 -17 50 -17 50 -24 20 -6 -29 2
-65 38 -161 20 -55 32 -235 18 -260 -10 -16 -11 -12 -12 26 -1 74 -25 155 -68
227 -22 37 -43 83 -47 101 -15 72 30 169 134 288 29 34 39 40 54 32 10 -5 23
-7 30 -5 7 2 0 10 -15 17 -16 7 -28 17 -28 21 0 14 -85 130 -88 120 -3 -10 22
-66 41 -89 15 -19 19 -52 7 -52 -6 0 -10 -6 -10 -13 0 -6 -20 -35 -45 -62 -25
-28 -45 -56 -45 -62 0 -7 -3 -13 -8 -13 -4 0 -16 -19 -26 -42 -13 -32 -17 -61
-14 -118 l3 -75 -40 38 c-32 31 -37 40 -25 47 12 8 9 10 -11 10 -42 0 -41 -11
5 -55 53 -51 118 -159 144 -240 22 -65 55 -245 47 -253 -2 -3 -7 4 -11 14 -33
99 -162 303 -227 359 -86 75 -172 105 -366 130 -146 18 -296 50 -365 76 -28
10 -51 17 -53 16 -7 -7 44 -67 75 -88 39 -27 28 -38 -16 -15 -50 26 -122 108
-158 181 -46 95 -58 162 -49 279 7 99 21 131 23 51 1 -123 143 -285 331 -380
58 -29 262 -98 269 -91 4 4 -71 41 -167 83 -178 77 -304 228 -331 395 -18 115
19 265 86 346 l19 23 -3 -61 c-5 -76 8 -129 55 -232 l36 -78 20 32 c10 18 28
43 40 56 28 30 6 28 -32 -3 l-30 -26 -15 33 c-34 72 -48 126 -55 203 -7 94
-21 104 -64 50z m-201 -817 c105 -55 194 -78 314 -84 70 -3 98 -1 85 5 -11 5
-42 10 -70 10 -36 1 -46 4 -35 11 12 8 12 10 1 10 -12 0 -51 36 -51 47 0 8
170 -23 205 -38 20 -8 57 -13 200 -25 89 -8 109 -24 30 -24 -33 0 -91 -5 -130
-11 -106 -16 -449 -16 -513 0 -76 19 -141 74 -202 173 -28 46 -59 94 -68 108
-9 14 24 -13 74 -60 56 -53 117 -99 160 -122z m828 -112 c26 -14 46 -22 46
-19 0 11 86 -72 123 -118 20 -26 37 -49 37 -52 0 -3 -33 28 -72 68 -68 67
-157 125 -193 125 -8 0 -15 5 -15 10 0 16 26 11 74 -14z m-417 -12 c-3 -3 -12
-4 -19 -1 -8 3 -5 6 6 6 11 1 17 -2 13 -5z m414 -242 c-7 -2 -18 1 -23 6 -8 8
-4 9 13 5 13 -4 18 -8 10 -11z m-51 -2 c-9 -5 -22 -10 -30 -12 -8 -2 -21 -9
-28 -15 -7 -7 -18 -13 -24 -13 -16 0 34 37 57 43 32 8 41 7 25 -3z m138 -19
c9 -5 -1 -10 -30 -13 -51 -6 -114 -35 -182 -83 -26 -19 -62 -39 -80 -43 l-31
-9 32 -16 c18 -9 43 -17 58 -17 14 0 25 -5 25 -11 0 -21 -196 -5 -270 23 -63
23 -185 96 -176 105 2 2 27 -8 56 -22 66 -33 141 -46 205 -34 28 5 94 32 148
59 124 64 209 85 245 61z m289 -43 c-3 -8 -6 -5 -6 6 -1 11 2 17 5 13 3 -3 4
-12 1 -19z m-123 -124 c3 -8 2 -12 -4 -9 -6 3 -10 10 -10 16 0 14 7 11 14 -7z
m-13 -115 c9 -12 7 -26 -10 -64 -12 -26 -23 -46 -24 -44 -8 10 6 98 14 93 14
-8 10 9 -6 30 -8 11 -15 29 -15 40 1 17 4 15 15 -9 8 -16 20 -37 26 -46z"/>
<path d="M2445 3640 c-4 -6 -8 -41 -10 -78 -4 -74 -49 -210 -72 -219 -8 -3
-23 4 -34 16 -11 11 -24 21 -29 21 -10 0 51 -99 62 -99 12 -1 54 89 78 167 15
48 21 90 18 127 -1 30 -1 55 2 55 12 0 72 -110 86 -156 21 -71 18 -202 -7
-276 -50 -149 -133 -231 -336 -330 -79 -39 -143 -71 -143 -73 0 -8 152 40 222
70 105 45 181 97 264 181 78 77 114 149 114 224 0 22 4 40 9 40 14 0 22 -181
10 -245 -31 -175 -172 -333 -299 -336 -80 -2 -104 -17 -28 -18 197 -3 394 83
537 234 65 69 61 56 -22 -73 -68 -105 -122 -151 -201 -174 -51 -14 -416 -13
-506 1 -36 6 -94 11 -129 11 -81 0 -71 13 17 22 37 4 94 10 127 13 33 4 69 10
80 14 21 9 117 30 174 38 l34 6 -19 -26 c-10 -14 -26 -28 -34 -30 -11 -4 -11
-5 3 -6 18 -1 117 88 117 106 0 7 -18 4 -47 -7 -63 -24 -274 -66 -394 -79
-117 -13 -218 -43 -281 -82 -87 -55 -174 -168 -246 -319 -45 -94 -47 -130 -6
-149 20 -9 27 -7 49 17 28 30 33 24 10 -12 -15 -22 -12 -56 5 -56 5 0 10 -8
13 -17 3 -13 9 -7 22 22 10 22 20 34 22 28 3 -7 -3 -27 -11 -44 -19 -38 -20
-42 -6 -34 7 4 11 -7 10 -32 0 -52 2 -74 8 -68 3 3 12 -9 19 -26 7 -18 11 -34
9 -37 -3 -2 -22 4 -43 15 -25 13 -45 34 -61 64 -28 54 -44 63 -29 14 16 -52
51 -83 147 -128 98 -46 133 -72 177 -135 38 -52 36 -69 -2 -24 -28 34 -117 72
-166 72 l-30 0 18 -31 c31 -54 79 -87 156 -109 127 -37 158 -51 217 -101 57
-47 120 -126 120 -149 0 -6 -12 3 -27 22 -64 77 -124 109 -269 143 -128 30
-191 63 -250 128 -65 73 -94 140 -101 234 -5 84 -25 143 -48 143 -8 0 -23 -16
-33 -36 -13 -24 -22 -33 -26 -25 -12 18 0 53 28 83 23 24 46 78 33 78 -3 0
-15 -15 -26 -32 -12 -18 -32 -48 -46 -67 -28 -38 -31 -59 -12 -85 19 -26 52
-7 67 39 6 19 15 35 20 35 12 0 -25 -115 -48 -147 -59 -83 -52 -175 24 -319
34 -66 57 -125 65 -167 12 -67 23 -78 31 -32 3 13 2 22 -2 20 -4 -3 -11 19
-14 47 -6 46 -38 116 -71 158 -23 28 -45 114 -45 172 0 47 6 69 35 120 19 35
35 61 36 58 0 -3 2 -17 4 -32 17 -128 84 -255 165 -308 12 -8 28 -20 35 -27 6
-6 47 -24 89 -39 75 -26 80 -30 147 -113 70 -88 90 -129 88 -191 -1 -34 -1
-33 -14 14 -9 33 -28 64 -58 95 -25 25 -55 66 -67 91 -25 51 -48 80 -63 80 -6
0 -3 -8 5 -17 8 -10 23 -39 33 -65 9 -26 39 -70 66 -99 27 -29 54 -68 60 -88
26 -79 59 -73 59 11 0 65 -30 119 -118 218 -26 29 -12 38 34 19 16 -7 34 -13
39 -13 24 -2 64 -32 114 -84 50 -53 54 -55 67 -37 23 31 6 67 -73 148 -62 64
-145 112 -218 127 -88 18 -155 52 -175 90 -9 17 -7 17 23 8 46 -15 88 -39 117
-65 22 -20 26 -21 40 -8 13 14 12 20 -9 61 -26 48 -97 116 -127 120 -10 2 -20
8 -22 14 -2 5 -9 7 -15 3 -7 -4 -6 0 1 10 10 11 11 27 6 49 -11 48 -8 76 15
140 12 32 21 70 21 85 l1 28 16 -29 c29 -54 85 -110 143 -143 34 -20 40 -20
51 -6 11 12 10 21 -5 47 -11 17 -39 72 -64 121 -25 50 -52 98 -60 108 -8 9
-11 17 -6 17 5 0 2 5 -6 10 -8 5 -10 10 -4 10 6 0 36 -18 67 -40 30 -22 59
-40 64 -40 5 0 16 -9 26 -20 16 -19 16 -20 -2 -20 -10 0 -24 -7 -31 -15 -10
-13 -10 -19 3 -33 13 -14 31 -17 95 -16 43 0 83 4 89 7 5 3 30 9 54 13 46 7
132 42 137 56 2 4 10 8 18 8 8 0 14 5 14 10 0 6 7 10 15 10 20 0 49 46 41 66
-4 10 -13 14 -24 11 -9 -2 -24 -6 -32 -8 -8 -2 -17 -6 -20 -9 -9 -9 -74 -29
-117 -36 -36 -5 -43 -4 -43 9 0 9 -12 24 -27 34 -16 10 -30 20 -33 23 -3 3
-18 16 -34 28 -28 22 -28 22 -5 22 13 0 44 -9 68 -20 24 -11 53 -20 65 -20 13
0 25 -3 29 -6 9 -9 107 -10 107 -1 0 4 14 7 30 7 17 0 38 4 48 8 61 30 77 43
80 61 2 12 9 21 16 21 7 0 36 11 64 25 29 14 56 25 60 25 18 0 72 61 72 81 0
19 -4 21 -32 14 -92 -22 -292 -7 -333 25 -5 5 -21 11 -35 14 -14 3 16 3 65 0
101 -7 90 -6 168 -4 31 2 60 7 63 11 3 5 18 9 33 9 16 0 34 7 41 15 7 8 15 13
19 10 16 -9 103 89 149 167 61 104 64 114 46 129 -16 13 -14 15 -128 -89 -67
-61 -194 -133 -261 -148 l-30 -7 41 40 c50 49 95 126 124 217 20 61 22 83 17
174 -4 74 -11 110 -21 120 -22 22 -42 1 -48 -51 -10 -81 -45 -136 -153 -237
-46 -43 -47 -44 -24 -10 13 19 30 40 39 47 8 6 15 15 16 20 0 4 12 33 26 64
76 166 60 334 -44 482 -20 28 -42 35 -53 17z m-505 -940 c0 -5 -7 -10 -15 -10
-33 0 -115 -58 -192 -135 -90 -91 -107 -98 -42 -20 69 83 127 133 182 154 61
23 67 24 67 11z m330 -45 c58 -14 139 -34 180 -46 102 -27 224 -30 270 -5 l35
19 -25 -27 c-13 -15 -54 -41 -90 -59 -98 -47 -166 -45 -335 13 -122 42 -136
45 -235 45 -69 -1 -116 -6 -138 -15 -32 -14 -29 -15 70 -15 108 0 127 -5 318
-75 70 -26 97 -31 153 -28 37 2 67 2 67 0 0 -2 -26 -15 -57 -30 -89 -41 -185
-38 -328 10 -60 20 -128 40 -150 43 l-40 5 30 -14 c17 -8 61 -42 99 -75 43
-38 78 -61 92 -61 13 0 24 -4 24 -10 0 -5 -10 -10 -22 -10 -38 1 -101 35 -143
79 -49 52 -115 74 -180 62 -44 -8 -95 -35 -95 -49 0 -5 20 -22 44 -39 38 -27
53 -50 106 -158 34 -69 68 -129 76 -132 8 -3 14 -9 14 -14 0 -15 -115 67 -140
98 -12 15 -32 43 -46 62 -13 19 -24 28 -24 20 -1 -15 -28 50 -37 89 -3 12 -9
22 -14 22 -13 0 -11 -10 11 -75 26 -74 25 -97 -5 -170 -29 -70 -31 -111 -9
-143 9 -13 14 -26 11 -28 -7 -8 -42 46 -55 85 -7 19 -12 68 -12 110 -1 42 -7
89 -15 106 l-13 30 -1 -29 c-1 -30 -25 -66 -44 -66 -6 0 -3 8 7 19 9 10 18 32
21 49 5 42 15 72 24 72 4 0 7 9 8 20 1 11 0 20 -2 20 -3 0 -20 -24 -39 -54
-32 -50 -74 -91 -84 -81 -6 6 81 116 122 153 19 17 41 32 48 32 7 0 33 14 58
31 50 34 29 32 -55 -5 -64 -29 -142 -103 -172 -166 -12 -25 -12 -25 -6 5 3 17
9 32 12 35 3 3 38 48 78 101 114 153 209 232 323 270 42 14 199 1 310 -26z
m37 19 c-3 -3 -12 -4 -19 -1 -8 3 -5 6 6 6 11 1 17 -2 13 -5z m-307 -264 l25
-20 -33 11 c-34 12 -52 29 -30 29 7 0 24 -9 38 -20z m23 -55 c59 -31 129 -60
157 -65 65 -12 149 3 218 40 74 40 60 16 -18 -31 -102 -62 -162 -81 -276 -87
-69 -3 -103 -1 -108 7 -5 7 2 11 19 11 14 0 42 7 63 16 l37 17 -32 7 c-17 4
-61 28 -97 54 -71 51 -131 76 -180 76 -24 0 -28 3 -16 11 33 22 122 1 233 -56z
m-486 -327 c-3 -7 -5 -2 -5 12 0 14 2 19 5 13 2 -7 2 -19 0 -25z"/>
<path d="M1760 2381 c0 -5 8 -16 18 -23 23 -16 42 -50 42 -76 0 -20 36 -59 46
-49 12 12 -44 114 -75 136 -17 12 -31 18 -31 12z"/>
<path d="M1712 2255 c1 -109 9 -140 23 -94 9 26 -5 209 -15 209 -5 0 -8 -52
-8 -115z"/>
<path d="M694 3323 c-11 -26 -15 -60 -12 -114 3 -67 7 -83 33 -121 81 -114
322 -230 532 -255 87 -10 62 13 -29 27 -222 34 -437 150 -499 270 -17 33 -20
51 -16 108 3 38 9 81 12 95 10 39 -4 33 -21 -10z"/>
<path d="M2281 3339 c6 -12 11 -59 12 -105 0 -76 -2 -87 -28 -124 -80 -116
-270 -213 -486 -250 -41 -7 -80 -18 -87 -25 -20 -18 156 11 246 41 259 86 382
199 382 351 0 65 -20 133 -40 133 -8 0 -7 -6 1 -21z"/>
<path d="M1492 3239 c35 -47 96 -87 160 -105 76 -22 115 -64 124 -134 9 -71
26 -74 18 -3 -9 86 -62 153 -120 153 -27 0 -99 40 -142 80 -52 48 -71 52 -40
9z"/>
<path d="M1375 3193 c21 -19 81 -60 105 -72 22 -11 21 -9 -8 19 -17 17 -49 38
-70 46 -20 9 -32 12 -27 7z"/>
<path d="M1398 3129 c29 -28 48 -39 68 -38 l29 0 -35 17 c-19 9 -40 24 -47 33
-7 9 -22 19 -33 22 -15 4 -11 -5 18 -34z"/>
<path d="M1666 3075 c10 -8 24 -14 29 -14 6 0 1 6 -9 14 -11 8 -24 15 -30 15
-5 0 -1 -7 10 -15z"/>
<path d="M1711 3045 c0 -5 6 -19 14 -29 19 -26 19 -56 0 -56 -28 0 -90 30
-107 53 l-17 22 -10 -28 c-23 -59 -2 -142 47 -194 l21 -21 -24 -6 c-13 -3 -37
-18 -54 -32 -17 -14 -31 -22 -31 -17 0 4 -5 0 -11 -10 -18 -31 1 -39 33 -12
16 14 40 28 54 31 13 3 21 10 18 15 -3 5 0 9 6 9 23 0 20 30 -6 70 -16 24 -31
63 -34 91 -7 50 -3 58 18 37 7 -7 12 -8 12 -2 0 5 4 3 9 -5 5 -7 32 -16 60
-19 28 -2 51 -8 51 -12 0 -4 6 -10 13 -13 10 -4 9 5 -5 31 -10 20 -18 41 -18
47 0 5 -9 21 -20 35 -11 14 -20 21 -19 15z"/>
<path d="M1265 2277 c-8 -94 -5 -129 11 -134 9 -3 12 28 13 107 0 60 -4 110
-9 110 -4 0 -11 -37 -15 -83z"/>
<path d="M1319 1885 c-19 -19 -117 -54 -174 -62 -25 -3 -42 -9 -40 -13 8 -12
126 1 163 18 18 8 35 12 39 9 3 -4 9 -39 13 -79 8 -85 29 -131 99 -218 28 -34
58 -83 67 -107 20 -52 15 -84 -34 -224 -40 -114 -54 -240 -41 -376 5 -57 18
-127 29 -155 25 -67 18 -74 -10 -11 -65 142 -88 273 -71 395 6 41 15 87 20
102 15 37 1 32 -37 -14 -33 -40 -78 -128 -69 -136 3 -3 15 12 28 33 l24 38 7
-110 c7 -120 11 -146 27 -188 6 -16 9 -33 5 -38 -3 -5 0 -9 6 -9 7 0 9 -7 6
-16 -3 -8 -2 -13 2 -10 5 3 14 -12 21 -32 15 -42 38 -72 56 -72 20 0 24 38 8
70 -18 36 -6 64 13 29 7 -13 10 -27 8 -30 -2 -4 3 -12 11 -19 8 -7 15 -17 15
-22 0 -31 33 -118 45 -118 30 0 30 96 -1 182 -7 21 -13 39 -12 41 1 1 -7 26
-16 55 -21 62 -26 186 -9 203 9 9 20 4 44 -21 45 -45 51 -18 6 28 -19 21 -39
46 -45 57 -10 19 -11 18 -23 -10 -6 -16 -14 -62 -16 -101 -5 -59 0 -89 25
-175 40 -138 52 -192 51 -226 0 -17 -7 -1 -19 42 -10 39 -32 101 -50 138 -67
148 -58 355 25 550 13 32 14 48 5 99 -14 75 -39 140 -51 132 -5 -3 -9 -1 -9 3
0 5 -16 26 -35 48 -41 45 -64 85 -76 129 l-8 31 19 -25 c10 -14 37 -45 60 -69
40 -43 76 -99 72 -113 -1 -5 3 -8 10 -8 6 0 8 -3 5 -6 -4 -4 0 -19 7 -33 8
-14 22 -44 31 -66 l16 -40 -6 50 c-8 70 -53 159 -120 235 -85 97 -116 169 -96
223 12 30 3 35 -20 12z"/>
<path d="M1594 1723 c25 -32 63 -101 85 -153 37 -87 84 -150 111 -150 18 0 11
69 -12 117 -23 50 -37 43 -19 -9 39 -112 -20 -53 -68 68 -20 51 -49 100 -77
132 -61 70 -75 66 -20 -5z"/>
<path d="M1288 1758 c-11 -27 2 -81 33 -139 77 -143 84 -161 84 -234 0 -67 -2
-73 -40 -120 -22 -28 -46 -56 -53 -63 -33 -35 -77 -172 -55 -172 5 0 14 20 21
44 10 39 36 83 126 211 26 37 28 46 24 111 -4 57 -11 83 -38 130 -66 117 -81
152 -88 200 -5 32 -10 43 -14 32z"/>
<path d="M1550 1730 c6 -11 8 -20 5 -20 -4 0 1 -7 9 -15 18 -19 38 -83 42
-140 7 -94 31 -163 90 -259 50 -80 59 -111 49 -172 -7 -52 -23 -60 -17 -10 4
34 -31 161 -49 181 -6 5 -8 -5 -7 -27 2 -20 6 -34 11 -31 7 4 10 -18 8 -72 -1
-26 1 -27 8 -10 8 16 10 10 10 -26 2 -94 45 -76 61 24 7 44 5 56 -14 87 -12
19 -25 40 -29 47 -5 7 0 9 13 6 18 -5 22 -10 19 -29 0 -4 4 -10 10 -13 6 -4
12 -20 15 -37 7 -55 44 -137 99 -214 53 -76 82 -105 96 -95 17 10 13 35 -14
80 -43 75 -54 125 -59 271 -6 180 -22 230 -93 301 -44 45 -56 35 -14 -12 65
-75 74 -105 82 -280 8 -180 15 -212 65 -286 46 -69 36 -74 -14 -7 -76 102
-142 252 -142 324 0 21 -5 24 -34 24 -67 0 -106 71 -125 227 -10 77 -26 124
-62 181 -17 27 -34 29 -19 2z"/>
<path d="M1541 1300 c-15 -69 -13 -167 3 -213 16 -43 66 -120 74 -112 3 2 -10
35 -29 72 -33 66 -34 70 -33 185 1 65 0 118 -2 118 -1 0 -7 -23 -13 -50z"/>
<path d="M1675 1060 c-6 -10 -1 -48 12 -94 3 -12 1 -16 -6 -12 -7 5 -10 -6
-10 -31 1 -21 -6 -60 -15 -88 -20 -58 -22 -192 -4 -211 4 -3 4 -13 1 -22 -5
-11 -3 -13 7 -7 10 6 12 3 8 -13 -4 -12 -2 -22 2 -22 5 0 12 -24 17 -52 7 -44
12 -54 30 -56 32 -5 37 30 19 128 -18 94 -20 167 -6 204 9 24 13 26 50 20 32
-5 41 -3 47 11 4 12 -1 24 -15 36 -22 18 -72 113 -72 137 0 8 -7 29 -16 48
-16 34 -37 44 -49 24z m46 -83 c29 -96 44 -124 77 -141 26 -15 26 -15 4 -16
-13 0 -33 10 -46 23 l-23 23 -16 -46 c-28 -80 -30 -119 -8 -217 23 -100 26
-143 12 -143 -5 0 -12 23 -15 52 -4 29 -16 78 -27 110 -26 78 -24 138 8 233
26 80 26 123 -2 189 -6 14 -5 17 3 12 7 -4 21 -39 33 -79z"/>
<path d="M1531 914 c-1 -51 34 -104 55 -82 10 10 10 22 0 60 -6 26 -15 50 -19
54 -13 13 -7 -51 7 -78 8 -16 10 -28 5 -28 -10 0 -21 24 -37 80 l-10 35 -1
-41z"/>
</g>
</svg>
